<svg width="59" height="59" viewBox="0 0 59 59" fill="none" xmlns="http://www.w3.org/2000/svg">
<rect width="59" height="59" rx="15.6835" fill="#FCFCFF"/>
<path d="M46.0001 29.5211C46.0001 38.6221 38.6222 46 29.5212 46C20.4201 46 13.0422 38.6221 13.0422 29.5211C13.0422 20.42 20.4201 13.0421 29.5212 13.0421C38.6222 13.0421 46.0001 20.42 46.0001 29.5211ZM19.5064 29.5211C19.5064 35.0521 23.9902 39.5358 29.5212 39.5358C35.0522 39.5358 39.536 35.0521 39.536 29.5211C39.536 23.99 35.0522 19.5063 29.5212 19.5063C23.9902 19.5063 19.5064 23.99 19.5064 29.5211Z" fill="url(#paint0_linear_153_3474)"/>
<circle cx="29.5" cy="29.5" r="4.5" fill="#FF8181"/>
<defs>
<linearGradient id="paint0_linear_153_3474" x1="22.4925" y1="20.6023" x2="35.0929" y2="38.8729" gradientUnits="userSpaceOnUse">
<stop stop-color="#7C7AFC"/>
<stop offset="1" stop-color="#5531E4"/>
</linearGradient>
</defs>
</svg>
